<mxfile host="app.diagrams.net" agent="Mozilla/5.0 (Windows NT 10.0; Win64; x64) AppleWebKit/537.36 (KHTML, like Gecko) Chrome/135.0.0.0 Safari/537.36 Edg/135.0.0.0" version="26.2.14">
  <diagram name="Page-1" id="EDCb-VcbXTdAP4WbdWrA">
    <mxGraphModel dx="1088" dy="564" grid="1" gridSize="10" guides="1" tooltips="1" connect="1" arrows="1" fold="1" page="1" pageScale="1" pageWidth="1100" pageHeight="1700" math="0" shadow="0">
      <root>
        <mxCell id="0" />
        <mxCell id="1" parent="0" />
        <mxCell id="EArgUDdHaj3xZMwuHEgS-1" value="Yachay Shop" style="rounded=0;whiteSpace=wrap;html=1;" vertex="1" parent="1">
          <mxGeometry x="420" y="20" width="300" height="30" as="geometry" />
        </mxCell>
        <mxCell id="EArgUDdHaj3xZMwuHEgS-2" value="Ingesta de Datos" style="rounded=0;whiteSpace=wrap;html=1;" vertex="1" parent="1">
          <mxGeometry x="10" y="430" width="250" height="20" as="geometry" />
        </mxCell>
        <mxCell id="EArgUDdHaj3xZMwuHEgS-3" value="Procesamiento" style="rounded=0;whiteSpace=wrap;html=1;" vertex="1" parent="1">
          <mxGeometry x="280" y="430" width="250" height="20" as="geometry" />
        </mxCell>
        <mxCell id="EArgUDdHaj3xZMwuHEgS-4" value="Almacenamiento" style="rounded=0;whiteSpace=wrap;html=1;" vertex="1" parent="1">
          <mxGeometry x="550" y="430" width="250" height="20" as="geometry" />
        </mxCell>
        <mxCell id="EArgUDdHaj3xZMwuHEgS-22" style="edgeStyle=orthogonalEdgeStyle;rounded=0;orthogonalLoop=1;jettySize=auto;html=1;exitX=1;exitY=0.5;exitDx=0;exitDy=0;entryX=0.5;entryY=0;entryDx=0;entryDy=0;" edge="1" parent="1" source="EArgUDdHaj3xZMwuHEgS-5" target="EArgUDdHaj3xZMwuHEgS-18">
          <mxGeometry relative="1" as="geometry" />
        </mxCell>
        <mxCell id="EArgUDdHaj3xZMwuHEgS-5" value="Web/App" style="rounded=1;whiteSpace=wrap;html=1;" vertex="1" parent="1">
          <mxGeometry x="40" y="70" width="120" height="60" as="geometry" />
        </mxCell>
        <mxCell id="EArgUDdHaj3xZMwuHEgS-23" style="edgeStyle=orthogonalEdgeStyle;rounded=0;orthogonalLoop=1;jettySize=auto;html=1;exitX=1;exitY=0.5;exitDx=0;exitDy=0;" edge="1" parent="1" source="EArgUDdHaj3xZMwuHEgS-6" target="EArgUDdHaj3xZMwuHEgS-18">
          <mxGeometry relative="1" as="geometry" />
        </mxCell>
        <mxCell id="EArgUDdHaj3xZMwuHEgS-6" value="POS" style="rounded=1;whiteSpace=wrap;html=1;" vertex="1" parent="1">
          <mxGeometry x="40" y="160" width="120" height="60" as="geometry" />
        </mxCell>
        <mxCell id="EArgUDdHaj3xZMwuHEgS-24" style="edgeStyle=orthogonalEdgeStyle;rounded=0;orthogonalLoop=1;jettySize=auto;html=1;exitX=1;exitY=0.5;exitDx=0;exitDy=0;entryX=0.5;entryY=1;entryDx=0;entryDy=0;" edge="1" parent="1" source="EArgUDdHaj3xZMwuHEgS-7" target="EArgUDdHaj3xZMwuHEgS-18">
          <mxGeometry relative="1" as="geometry" />
        </mxCell>
        <mxCell id="EArgUDdHaj3xZMwuHEgS-7" value="CRM" style="rounded=1;whiteSpace=wrap;html=1;" vertex="1" parent="1">
          <mxGeometry x="40" y="240" width="120" height="60" as="geometry" />
        </mxCell>
        <mxCell id="EArgUDdHaj3xZMwuHEgS-25" style="edgeStyle=orthogonalEdgeStyle;rounded=0;orthogonalLoop=1;jettySize=auto;html=1;exitX=1;exitY=0.5;exitDx=0;exitDy=0;" edge="1" parent="1" source="EArgUDdHaj3xZMwuHEgS-8">
          <mxGeometry relative="1" as="geometry">
            <mxPoint x="280" y="230" as="targetPoint" />
          </mxGeometry>
        </mxCell>
        <mxCell id="EArgUDdHaj3xZMwuHEgS-8" value="Gestión de Inventarios" style="rounded=1;whiteSpace=wrap;html=1;" vertex="1" parent="1">
          <mxGeometry x="40" y="330" width="120" height="60" as="geometry" />
        </mxCell>
        <mxCell id="EArgUDdHaj3xZMwuHEgS-12" value="Kafka" style="text;html=1;align=center;verticalAlign=middle;whiteSpace=wrap;rounded=0;" vertex="1" parent="1">
          <mxGeometry x="170" y="85" width="60" height="30" as="geometry" />
        </mxCell>
        <mxCell id="EArgUDdHaj3xZMwuHEgS-13" value="API" style="text;html=1;align=center;verticalAlign=middle;whiteSpace=wrap;rounded=0;" vertex="1" parent="1">
          <mxGeometry x="170" y="172.5" width="60" height="35" as="geometry" />
        </mxCell>
        <mxCell id="EArgUDdHaj3xZMwuHEgS-14" value="AWS (S3)" style="text;html=1;align=center;verticalAlign=middle;whiteSpace=wrap;rounded=0;" vertex="1" parent="1">
          <mxGeometry x="170" y="255" width="60" height="30" as="geometry" />
        </mxCell>
        <mxCell id="EArgUDdHaj3xZMwuHEgS-15" value="API" style="text;html=1;align=center;verticalAlign=middle;whiteSpace=wrap;rounded=0;" vertex="1" parent="1">
          <mxGeometry x="170" y="340" width="60" height="30" as="geometry" />
        </mxCell>
        <mxCell id="EArgUDdHaj3xZMwuHEgS-16" value="Visualización" style="rounded=0;whiteSpace=wrap;html=1;" vertex="1" parent="1">
          <mxGeometry x="810" y="430" width="250" height="20" as="geometry" />
        </mxCell>
        <mxCell id="EArgUDdHaj3xZMwuHEgS-28" style="edgeStyle=orthogonalEdgeStyle;rounded=0;orthogonalLoop=1;jettySize=auto;html=1;exitX=1;exitY=0.5;exitDx=0;exitDy=0;exitPerimeter=0;entryX=0;entryY=0.5;entryDx=0;entryDy=0;" edge="1" parent="1" source="EArgUDdHaj3xZMwuHEgS-17" target="EArgUDdHaj3xZMwuHEgS-21">
          <mxGeometry relative="1" as="geometry" />
        </mxCell>
        <mxCell id="EArgUDdHaj3xZMwuHEgS-17" value="Lago Datos S3" style="shape=cylinder3;whiteSpace=wrap;html=1;boundedLbl=1;backgroundOutline=1;size=15;" vertex="1" parent="1">
          <mxGeometry x="560" y="150" width="60" height="80" as="geometry" />
        </mxCell>
        <mxCell id="EArgUDdHaj3xZMwuHEgS-26" style="edgeStyle=orthogonalEdgeStyle;rounded=0;orthogonalLoop=1;jettySize=auto;html=1;exitX=1;exitY=0.5;exitDx=0;exitDy=0;entryX=0;entryY=0.5;entryDx=0;entryDy=0;" edge="1" parent="1" source="EArgUDdHaj3xZMwuHEgS-18" target="EArgUDdHaj3xZMwuHEgS-19">
          <mxGeometry relative="1" as="geometry" />
        </mxCell>
        <mxCell id="EArgUDdHaj3xZMwuHEgS-18" value="Motor Ingestas" style="ellipse;whiteSpace=wrap;html=1;" vertex="1" parent="1">
          <mxGeometry x="240" y="150" width="80" height="80" as="geometry" />
        </mxCell>
        <mxCell id="EArgUDdHaj3xZMwuHEgS-19" value="Asset&amp;nbsp;" style="rounded=1;whiteSpace=wrap;html=1;" vertex="1" parent="1">
          <mxGeometry x="360" y="160" width="120" height="60" as="geometry" />
        </mxCell>
        <mxCell id="EArgUDdHaj3xZMwuHEgS-20" value="ETl" style="text;html=1;align=center;verticalAlign=middle;whiteSpace=wrap;rounded=0;" vertex="1" parent="1">
          <mxGeometry x="390" y="230" width="60" height="30" as="geometry" />
        </mxCell>
        <mxCell id="EArgUDdHaj3xZMwuHEgS-31" style="edgeStyle=orthogonalEdgeStyle;rounded=0;orthogonalLoop=1;jettySize=auto;html=1;exitX=1;exitY=0.5;exitDx=0;exitDy=0;" edge="1" parent="1" source="EArgUDdHaj3xZMwuHEgS-21">
          <mxGeometry relative="1" as="geometry">
            <mxPoint x="880" y="190" as="targetPoint" />
          </mxGeometry>
        </mxCell>
        <mxCell id="EArgUDdHaj3xZMwuHEgS-21" value="Asset TN" style="rounded=1;whiteSpace=wrap;html=1;" vertex="1" parent="1">
          <mxGeometry x="680" y="160" width="120" height="60" as="geometry" />
        </mxCell>
        <mxCell id="EArgUDdHaj3xZMwuHEgS-27" style="edgeStyle=orthogonalEdgeStyle;rounded=0;orthogonalLoop=1;jettySize=auto;html=1;exitX=1;exitY=0.5;exitDx=0;exitDy=0;entryX=0;entryY=0.5;entryDx=0;entryDy=0;entryPerimeter=0;" edge="1" parent="1" source="EArgUDdHaj3xZMwuHEgS-19" target="EArgUDdHaj3xZMwuHEgS-17">
          <mxGeometry relative="1" as="geometry" />
        </mxCell>
        <mxCell id="EArgUDdHaj3xZMwuHEgS-34" value="Power BI" style="rounded=1;whiteSpace=wrap;html=1;" vertex="1" parent="1">
          <mxGeometry x="875" y="160" width="120" height="60" as="geometry" />
        </mxCell>
      </root>
    </mxGraphModel>
  </diagram>
</mxfile>
